<svg width="57" height="50" xmlns="http://www.w3.org/2000/svg" viewBox="0 0 1224 792"><path fill="#C6A348" d="M940.4 431.5l-13.8-18.7H762.1l66.9 96.6c-69.6 13.6-135.3-44.6-134.4-112.3 1-69.2 56.8-121 123.6-120.5 73.3.4 146.4 79.4 122.2 154.9m98.7 118.7s48.8-63.7 49-146.6c.4-162.9-113.7-268.7-272.9-269-92.2-.1-170.5 44.9-218 110.7 19.7 28 31.2 55 35.9 72.9h-72.9c-3.7 11.5-6.6 23.3-8.7 35.4h90c2.1 13.3 3.2 26.9 3.2 40.8 0 55.8-17.5 107.5-47.3 150.1 46.4 66.7 123.3 115.1 218.7 115.1 63.3 0 108-27 116.1-31.3l16.8 22.1h162l-71.9-100.2z"/><path d="M398.5 477.2h67c0 3-34.3 36.4-85.9 36.4-56.7 0-120.9-44.8-122.2-116.5-1.3-74.3 62.9-123 122.2-120.9 48.1 1.7 66.4 15.5 93.3 41.9 0 0 38.8 0 78.2.1H633c-4.7-17.9-16.2-44.9-35.9-72.9-1.7-2.3-3.3-4.7-5.1-7-39.4-52.5-107.9-105.7-214.4-105.9-125.1-.2-221.6 83.5-253.4 185.8-.4 1.2-.8 2.5-1.1 3.7 0 .1 0 .1-.1.2-6.5 22.9-10.1 47.1-10.1 72 .2 23.9 3.3 46.8 9 68.4 20.1 74.7 72.3 136.3 141.2 169.4.6.3 1.1.5 1.7.8.3.2.7.3 1.1.5 34.7 15.8 73.7 24.6 115.2 24.9 87.8-.7 165.5-43.7 213.4-109.5 1-1.4 1.9-2.8 2.9-4.2 29.8-42.6 47.3-94.3 47.3-150.1 0-13.9-1.1-27.5-3.2-40.8h-243v123.7z"/></svg>