<svg xmlns="http://www.w3.org/2000/svg" width="230" height="121">
  <path opacity=".85" fill="#909090" d="M118.478 60.978c0-2.929-.015-5.813-.452-8.358H65.134v25.442h15.7c0 2.544-7.257 7.772-18.145 7.772-11.978 0-25.539-9.417-25.81-24.568-.283-15.697 13.297-25.963 25.81-25.516 10.162.363 14.043 3.277 19.71 8.855l33.84.025c-.984-3.779-3.419-9.489-7.585-15.4a51.206 51.206 0 0 0-1.078-1.48C99.245 16.66 84.77 5.402 62.279 5.378c-26.426-.037-46.822 17.63-53.548 39.261-.08.261-.157.522-.236.785a55.414 55.414 0 0 0-2.137 15.263c.05 5.051.706 9.886 1.898 14.448 4.244 15.782 15.29 28.807 29.833 35.793.117.055.233.112.353.164.075.04.152.069.221.104 7.339 3.337 15.583 5.197 24.336 5.265a56.213 56.213 0 0 0 45.09-23.131c.207-.286 10.389-15.015 10.389-32.352z"/>
  <path opacity=".85" fill="#E2E2E2" d="M202.044 93.089s10.307-13.164 10.347-30.692c.082-34.424-24.031-56.639-57.67-56.69-19.489-.03-37.455 10.335-46.656 22.771-8.184 11.064-9.533 20.282-9.533 26.987-.388 8.341.432 12.287.432 12.287 1.188 8.686 4.56 17.23 9.737 24.682 9.797 14.107 26.065 24.329 46.213 24.329 13.372.002 22.831-6.278 24.54-7.186l3.544 4.104h34.252l-15.206-20.592zm-20.851-24.155l-2.924-3.593h-34.747l14.127 20.051c-14.701 2.882-28.595-9.61-28.391-23.917.206-14.619 12.003-25.477 26.112-25.382 15.487.098 30.937 16.889 25.823 32.841z"/>
  <g opacity=".85" fill="#AFAFAF">
    <path d="M116.239 44.644c-.984-3.779-3.419-9.496-7.585-15.404-.174-.251-.363-.502-.542-.755l-.047.06c-4.395 5.938-6.815 11.335-8.117 16.095l16.291.004zM118.478 60.978c0-2.929-.015-5.813-.452-8.358h-19.4c-.064 0-.094 1.968-.094 2.892-.388 8.344.432 12.262.432 12.262 1.183 8.679 4.552 17.208 9.72 24.654 2.211-3.471 9.794-16.489 9.794-31.45z"/>
  </g>
</svg>
